<svg width="240" height="50" viewBox="0 0 240 50" fill="none" xmlns="http://www.w3.org/2000/svg">
<rect x="0.5" y="0.5" width="239" height="49" rx="24.5" stroke="#FFD280"/>
<circle cx="25" cy="25" r="25" fill="#FFD280"/>
<path d="M24.24 34.98C23.2133 34.98 22.2933 34.7467 21.48 34.28C20.6667 33.8267 20.0467 33.2067 19.62 32.42L20.94 31.16C21.3133 31.7333 21.7933 32.1867 22.38 32.52C22.9667 32.8667 23.5933 33.04 24.26 33.04C24.8067 33.04 25.2933 32.92 25.72 32.68C26.1467 32.4533 26.48 32.1333 26.72 31.72C26.9733 31.2933 27.1 30.8067 27.1 30.26C27.1 29.7267 26.98 29.26 26.74 28.86C26.5 28.4467 26.18 28.1333 25.78 27.92C25.38 27.6933 24.92 27.58 24.4 27.58C23.8933 27.58 23.42 27.6933 22.98 27.92C22.54 28.1467 22.18 28.4667 21.9 28.88H19.96L21.58 20.58H28.52V22.6H23.18L22.46 26.48C22.6867 26.24 22.9933 26.0467 23.38 25.9C23.7667 25.74 24.2067 25.66 24.7 25.66C25.5933 25.66 26.3867 25.86 27.08 26.26C27.7867 26.6467 28.34 27.18 28.74 27.86C29.1533 28.54 29.36 29.3267 29.36 30.22C29.36 31.1667 29.1333 31.9933 28.68 32.7C28.2267 33.42 27.6133 33.98 26.84 34.38C26.0667 34.78 25.2 34.98 24.24 34.98Z" fill="black"/>
<path d="M59.84 22.46V32.5H57.6V18.3H59.44L67.48 28.56V18.32H69.74V32.5H67.78L59.84 22.46ZM78.832 32.6C77.8054 32.6 76.8787 32.4 76.052 32C75.2254 31.6 74.512 31.06 73.912 30.38C73.312 29.6867 72.8454 28.9133 72.512 28.06C72.192 27.1933 72.032 26.3067 72.032 25.4C72.032 24.4533 72.2054 23.5533 72.552 22.7C72.8987 21.8333 73.3787 21.0667 73.992 20.4C74.6054 19.72 75.3254 19.1867 76.152 18.8C76.992 18.4 77.8987 18.2 78.872 18.2C79.8854 18.2 80.8054 18.4067 81.632 18.82C82.472 19.2333 83.1854 19.7867 83.772 20.48C84.372 21.1733 84.832 21.9467 85.152 22.8C85.4854 23.6533 85.652 24.5267 85.652 25.42C85.652 26.3667 85.4787 27.2733 85.132 28.14C84.7987 28.9933 84.3254 29.76 83.712 30.44C83.0987 31.1067 82.372 31.6333 81.532 32.02C80.7054 32.4067 79.8054 32.6 78.832 32.6ZM74.312 25.4C74.312 26.0667 74.4187 26.7133 74.632 27.34C74.8454 27.9667 75.1454 28.5267 75.532 29.02C75.932 29.5 76.412 29.88 76.972 30.16C77.532 30.44 78.1587 30.58 78.852 30.58C79.572 30.58 80.212 30.4333 80.772 30.14C81.332 29.8467 81.7987 29.4533 82.172 28.96C82.5587 28.4533 82.852 27.8933 83.052 27.28C83.252 26.6533 83.352 26.0267 83.352 25.4C83.352 24.7333 83.2454 24.0933 83.032 23.48C82.832 22.8533 82.532 22.3 82.132 21.82C81.732 21.3267 81.252 20.94 80.692 20.66C80.1454 20.38 79.532 20.24 78.852 20.24C78.132 20.24 77.492 20.3867 76.932 20.68C76.372 20.9733 75.8987 21.3667 75.512 21.86C75.1254 22.3533 74.8254 22.9067 74.612 23.52C74.412 24.1333 74.312 24.76 74.312 25.4ZM93.8911 32.6C92.7578 32.6 91.7978 32.4067 91.0111 32.02C90.2378 31.6333 89.6111 31.1067 89.1311 30.44C88.6644 29.7733 88.3178 29.0133 88.0911 28.16C87.8778 27.3067 87.7711 26.42 87.7711 25.5V18.3H90.0111V25.5C90.0111 26.1533 90.0778 26.7867 90.2111 27.4C90.3444 28 90.5578 28.54 90.8511 29.02C91.1444 29.5 91.5378 29.88 92.0311 30.16C92.5378 30.44 93.1578 30.58 93.8911 30.58C94.6378 30.58 95.2578 30.44 95.7511 30.16C96.2578 29.8667 96.6511 29.48 96.9311 29C97.2244 28.5067 97.4378 27.96 97.5711 27.36C97.7044 26.76 97.7711 26.14 97.7711 25.5V18.3H100.031V25.5C100.031 26.4733 99.9111 27.3933 99.6711 28.26C99.4444 29.1133 99.0844 29.8667 98.5911 30.52C98.1111 31.16 97.4844 31.6667 96.7111 32.04C95.9378 32.4133 94.9978 32.6 93.8911 32.6ZM103.01 32.5V18.3H109.19C109.83 18.3 110.417 18.4333 110.95 18.7C111.483 18.9667 111.943 19.32 112.33 19.76C112.73 20.2 113.037 20.6933 113.25 21.24C113.477 21.7867 113.59 22.3467 113.59 22.92C113.59 23.5467 113.477 24.1467 113.25 24.72C113.023 25.2933 112.697 25.7867 112.27 26.2C111.857 26.6133 111.37 26.9133 110.81 27.1L114.15 32.5H111.63L108.55 27.56H105.25V32.5H103.01ZM105.25 25.58H109.17C109.583 25.58 109.95 25.46 110.27 25.22C110.59 24.98 110.843 24.66 111.03 24.26C111.217 23.8467 111.31 23.4 111.31 22.92C111.31 22.4267 111.203 21.9867 110.99 21.6C110.777 21.2 110.497 20.88 110.15 20.64C109.817 20.4 109.45 20.28 109.05 20.28H105.25V25.58ZM116.233 32.5V18.3H118.473V32.5H116.233ZM130.082 21.64C129.949 21.4933 129.755 21.34 129.502 21.18C129.249 21.0067 128.949 20.8467 128.602 20.7C128.255 20.5533 127.882 20.4333 127.482 20.34C127.082 20.2467 126.669 20.2 126.242 20.2C125.309 20.2 124.615 20.3733 124.162 20.72C123.709 21.0667 123.482 21.5467 123.482 22.16C123.482 22.6133 123.609 22.9733 123.862 23.24C124.115 23.4933 124.502 23.7067 125.022 23.88C125.542 24.0533 126.195 24.24 126.982 24.44C127.942 24.6667 128.775 24.94 129.482 25.26C130.189 25.5667 130.729 25.98 131.102 26.5C131.475 27.02 131.662 27.7067 131.662 28.56C131.662 29.28 131.529 29.9 131.262 30.42C130.995 30.94 130.622 31.3667 130.142 31.7C129.662 32.02 129.109 32.26 128.482 32.42C127.855 32.5667 127.182 32.64 126.462 32.64C125.755 32.64 125.049 32.5667 124.342 32.42C123.649 32.2733 122.982 32.06 122.342 31.78C121.715 31.4867 121.135 31.1333 120.602 30.72L121.622 28.8C121.795 28.9733 122.042 29.1667 122.362 29.38C122.695 29.58 123.075 29.7733 123.502 29.96C123.942 30.1467 124.415 30.3067 124.922 30.44C125.442 30.56 125.969 30.62 126.502 30.62C127.395 30.62 128.075 30.4667 128.542 30.16C129.022 29.84 129.262 29.3867 129.262 28.8C129.262 28.32 129.109 27.94 128.802 27.66C128.495 27.3667 128.049 27.12 127.462 26.92C126.875 26.72 126.175 26.52 125.362 26.32C124.429 26.0667 123.649 25.7933 123.022 25.5C122.395 25.1933 121.922 24.8067 121.602 24.34C121.295 23.86 121.142 23.2533 121.142 22.52C121.142 21.5867 121.369 20.8 121.822 20.16C122.275 19.5067 122.889 19.02 123.662 18.7C124.449 18.3667 125.329 18.2 126.302 18.2C126.942 18.2 127.549 18.2733 128.122 18.42C128.695 18.5533 129.229 18.74 129.722 18.98C130.229 19.22 130.689 19.4933 131.102 19.8L130.082 21.64ZM145.569 18.3V32.5H143.309V26.24H136.149V32.5H133.909V18.3H136.149V24.24H143.309V18.3H145.569Z" fill="black"/>
</svg>
