<svg width="100" height="100" viewBox="0 0 100 100" fill="none" xmlns="http://www.w3.org/2000/svg">
<g clip-path="url(#clip0_153_13004)">
<path d="M50 100C77.6142 100 100 77.6142 100 50C100 22.3858 77.6142 0 50 0C22.3858 0 0 22.3858 0 50C0 77.6142 22.3858 100 50 100Z" fill="#FFD280"/>
<path d="M47.1434 15.6797C48.3559 18.6463 50.3491 23.1277 53.329 28.3001C56.5746 33.9276 58.7971 36.5687 60.6308 39.3127C62.3018 41.8142 73.9887 59.3014 67.5141 72.646C64.7468 78.3466 58.4549 83.725 50.7511 84.2798C49.7379 84.3529 42.931 84.7382 37.3699 80.0209C29.1313 73.0347 30.5465 60.7299 30.8022 58.5141C31.9185 48.8137 37.0178 46.2424 42.4427 32.3829C45.1767 25.3933 46.4856 19.4004 47.1434 15.6797Z" fill="white"/>
<path d="M48.5268 22.3799L50.9751 82.243C50.9751 82.243 60.5359 80.7448 65.0539 72.8616C67.4989 68.5994 67.3727 64.4203 67.3029 61.7726C67.1269 54.906 64.2234 49.7933 60.7153 43.5645C58.463 39.5648 57.9447 39.4884 54.7556 34.1067C51.892 29.2731 49.8323 25.1505 48.5234 22.3799H48.5268Z" fill="#FFD280"/>
</g>
<defs>
<clipPath id="clip0_153_13004">
<rect width="100" height="100" fill="white"/>
</clipPath>
</defs>
</svg>
