<svg width="100" height="100" viewBox="0 0 100 100" fill="none" xmlns="http://www.w3.org/2000/svg">
<g clip-path="url(#clip0_153_13008)">
<path d="M50 100C77.6142 100 100 77.6142 100 50C100 22.3858 77.6142 0 50 0C22.3858 0 0 22.3858 0 50C0 77.6142 22.3858 100 50 100Z" fill="#FFD280"/>
<path d="M47.1434 15.6797C48.3559 18.6463 50.3491 23.1277 53.329 28.3001C56.5746 33.9276 58.7971 36.5687 60.6308 39.3127C62.3018 41.8142 73.9887 59.3014 67.5141 72.646C64.7468 78.3466 58.4549 83.725 50.7511 84.2798C49.7379 84.3529 42.931 84.7382 37.3699 80.0209C29.1313 73.0347 30.5465 60.7299 30.8022 58.5141C31.9185 48.8137 37.0178 46.2424 42.4427 32.3829C45.1767 25.3933 46.4856 19.4004 47.1434 15.6797Z" fill="white"/>
<path d="M47.4769 21.042C48.5466 23.6598 50.3039 27.613 52.9383 32.1808C55.8019 37.1472 57.7619 39.4793 59.3798 41.9011C60.8547 44.1069 71.1697 59.5411 65.4524 71.3177C63.0107 76.3473 57.4563 81.0945 50.6594 81.5861C49.7658 81.6493 43.7595 81.9914 38.8496 77.8289C31.5776 71.6632 32.83 60.8035 33.0526 58.8468C34.0392 50.2859 38.5373 48.0169 43.3243 35.7852C45.7395 29.6195 46.8922 24.3275 47.4736 21.042H47.4769Z" fill="#FFD280"/>
<path d="M50.758 59.0994C50.4823 62.8467 50.386 65.5874 50.469 67.3181L49.6618 67.3646C49.5787 65.6339 49.2266 62.933 48.5987 59.2589C47.9509 55.6113 47.5888 52.9802 47.5124 51.369C47.3795 48.5486 47.9011 47.1035 49.0837 47.0338C50.2664 46.964 50.9241 48.3427 51.0604 51.1631C51.1301 52.6347 51.0305 55.2791 50.758 59.0994ZM50.5023 72.8095C49.3429 72.8759 48.7316 72.2946 48.6718 71.0621C48.612 69.7798 49.1402 69.1087 50.2564 69.0456C51.4158 68.9792 52.0271 69.5605 52.0869 70.793C52.1467 72.072 51.6185 72.7463 50.5023 72.8095Z" fill="white"/>
</g>
<defs>
<clipPath id="clip0_153_13008">
<rect width="100" height="100" fill="white"/>
</clipPath>
</defs>
</svg>
