<svg width="240" height="50" viewBox="0 0 240 50" fill="none" xmlns="http://www.w3.org/2000/svg">
<rect x="0.5" y="0.5" width="239" height="49" rx="24.5" stroke="#FFD280"/>
<circle cx="25" cy="25" r="25" fill="#FFD280"/>
<path d="M27.3917 25.28C27.9517 25.3733 28.4384 25.5867 28.8517 25.92C29.2784 26.24 29.6051 26.6533 29.8317 27.16C30.0584 27.6533 30.1717 28.2133 30.1717 28.84C30.1717 29.6667 29.9651 30.3867 29.5517 31C29.1517 31.6133 28.5784 32.0867 27.8317 32.42C27.0851 32.7667 26.2051 32.94 25.1917 32.94C24.1784 32.94 23.2851 32.76 22.5117 32.4C21.7384 32.0533 21.1184 31.5467 20.6517 30.88L21.9917 29.36C22.3117 29.84 22.7251 30.22 23.2317 30.5C23.7384 30.7933 24.3784 30.94 25.1517 30.94C26.0184 30.94 26.6917 30.7533 27.1717 30.38C27.6517 30.0067 27.8917 29.4467 27.8917 28.7C27.8917 27.9267 27.6251 27.32 27.0917 26.88C26.5717 26.44 25.7851 26.22 24.7317 26.22H24.1917V24.5H24.7917C25.6851 24.5 26.3717 24.2933 26.8517 23.88C27.3317 23.4533 27.5717 22.92 27.5717 22.28C27.5717 21.8533 27.4717 21.5067 27.2717 21.24C27.0851 20.96 26.8184 20.7533 26.4717 20.62C26.1251 20.4867 25.7251 20.42 25.2717 20.42C24.5917 20.42 23.9917 20.5667 23.4717 20.86C22.9517 21.1533 22.5384 21.5733 22.2317 22.12L20.8517 20.62C21.1184 20.1933 21.4851 19.82 21.9517 19.5C22.4184 19.18 22.9517 18.9333 23.5517 18.76C24.1651 18.5733 24.8117 18.48 25.4917 18.48C26.3717 18.48 27.1451 18.6267 27.8117 18.92C28.4784 19.2133 28.9917 19.6267 29.3517 20.16C29.7251 20.6933 29.9117 21.32 29.9117 22.04C29.9117 22.56 29.8117 23.0533 29.6117 23.52C29.4117 23.9733 29.1184 24.36 28.7317 24.68C28.3451 24.9867 27.8984 25.1867 27.3917 25.28Z" fill="black"/>
<path d="M57.6 32.5V18.3H63.56C64.2 18.3 64.7867 18.4333 65.32 18.7C65.8533 18.9667 66.32 19.32 66.72 19.76C67.12 20.2 67.4267 20.6933 67.64 21.24C67.8533 21.7867 67.96 22.3467 67.96 22.92C67.96 23.7067 67.78 24.46 67.42 25.18C67.0733 25.8867 66.5733 26.46 65.92 26.9C65.28 27.34 64.5333 27.56 63.68 27.56H59.84V32.5H57.6ZM59.84 25.58H63.54C63.9667 25.58 64.34 25.4667 64.66 25.24C64.98 25 65.2267 24.68 65.4 24.28C65.5867 23.88 65.68 23.4267 65.68 22.92C65.68 22.4 65.5733 21.94 65.36 21.54C65.1467 21.14 64.8667 20.8333 64.52 20.62C64.1867 20.3933 63.82 20.28 63.42 20.28H59.84V25.58ZM70.0609 32.5V18.3H76.2409C76.8809 18.3 77.4676 18.4333 78.0009 18.7C78.5343 18.9667 78.9943 19.32 79.3809 19.76C79.7809 20.2 80.0876 20.6933 80.3009 21.24C80.5276 21.7867 80.6409 22.3467 80.6409 22.92C80.6409 23.5467 80.5276 24.1467 80.3009 24.72C80.0743 25.2933 79.7476 25.7867 79.3209 26.2C78.9076 26.6133 78.4209 26.9133 77.8609 27.1L81.2009 32.5H78.6809L75.6009 27.56H72.3009V32.5H70.0609ZM72.3009 25.58H76.2209C76.6343 25.58 77.0009 25.46 77.3209 25.22C77.6409 24.98 77.8943 24.66 78.0809 24.26C78.2676 23.8467 78.3609 23.4 78.3609 22.92C78.3609 22.4267 78.2543 21.9867 78.0409 21.6C77.8276 21.2 77.5476 20.88 77.2009 20.64C76.8676 20.4 76.5009 20.28 76.1009 20.28H72.3009V25.58ZM93.0236 30.52V32.5H83.2836V18.3H92.8436V20.28H85.5236V24.32H91.8636V26.18H85.5236V30.52H93.0236ZM95.3344 32.5V18.3H101.294C101.934 18.3 102.521 18.4333 103.054 18.7C103.588 18.9667 104.054 19.32 104.454 19.76C104.854 20.2 105.161 20.6933 105.374 21.24C105.588 21.7867 105.694 22.3467 105.694 22.92C105.694 23.7067 105.514 24.46 105.154 25.18C104.808 25.8867 104.308 26.46 103.654 26.9C103.014 27.34 102.268 27.56 101.414 27.56H97.5744V32.5H95.3344ZM97.5744 25.58H101.274C101.701 25.58 102.074 25.4667 102.394 25.24C102.714 25 102.961 24.68 103.134 24.28C103.321 23.88 103.414 23.4267 103.414 22.92C103.414 22.4 103.308 21.94 103.094 21.54C102.881 21.14 102.601 20.8333 102.254 20.62C101.921 20.3933 101.554 20.28 101.154 20.28H97.5744V25.58ZM110.88 18.3H113L118.52 32.5H116.16L114.66 28.64H109.18L107.7 32.5H105.32L110.88 18.3ZM114.22 26.98L111.94 20.76L109.58 26.98H114.22ZM120.276 32.5V18.3H126.456C127.096 18.3 127.682 18.4333 128.216 18.7C128.749 18.9667 129.209 19.32 129.596 19.76C129.996 20.2 130.302 20.6933 130.516 21.24C130.742 21.7867 130.856 22.3467 130.856 22.92C130.856 23.5467 130.742 24.1467 130.516 24.72C130.289 25.2933 129.962 25.7867 129.536 26.2C129.122 26.6133 128.636 26.9133 128.076 27.1L131.416 32.5H128.896L125.816 27.56H122.516V32.5H120.276ZM122.516 25.58H126.436C126.849 25.58 127.216 25.46 127.536 25.22C127.856 24.98 128.109 24.66 128.296 24.26C128.482 23.8467 128.576 23.4 128.576 22.92C128.576 22.4267 128.469 21.9867 128.256 21.6C128.042 21.2 127.762 20.88 127.416 20.64C127.082 20.4 126.716 20.28 126.316 20.28H122.516V25.58ZM143.238 30.52V32.5H133.498V18.3H143.058V20.28H135.738V24.32H142.078V26.18H135.738V30.52H143.238Z" fill="black"/>
</svg>
