<svg width="240" height="50" viewBox="0 0 240 50" fill="none" xmlns="http://www.w3.org/2000/svg">
<rect x="0.5" y="0.5" width="239" height="49" rx="24.5" stroke="#FFD280"/>
<circle cx="25" cy="25" r="25" fill="#FFD280"/>
<path d="M30.28 27.28C30.28 28.1867 30.0533 29.0133 29.6 29.76C29.16 30.5067 28.5467 31.1 27.76 31.54C26.9867 31.98 26.12 32.2 25.16 32.2C24.12 32.2 23.2067 31.9533 22.42 31.46C21.6467 30.9533 21.04 30.2267 20.6 29.28C20.1733 28.3333 19.96 27.2067 19.96 25.9C19.96 24.0867 20.18 22.5733 20.62 21.36C21.0733 20.1467 21.7067 19.2333 22.52 18.62C23.3333 18.0067 24.2867 17.7 25.38 17.7C26.2867 17.7 27.1133 17.9133 27.86 18.34C28.62 18.7533 29.2333 19.3333 29.7 20.08L28.4 21.44C28.0933 20.88 27.6667 20.44 27.12 20.12C26.5867 19.7867 25.9933 19.62 25.34 19.62C24.6867 19.62 24.1067 19.8133 23.6 20.2C23.1067 20.5733 22.72 21.12 22.44 21.84C22.1733 22.56 22.0333 23.4333 22.02 24.46C22.22 24.06 22.48 23.72 22.8 23.44C23.1333 23.1467 23.52 22.92 23.96 22.76C24.4 22.6 24.8667 22.52 25.36 22.52C26.2933 22.52 27.1267 22.7333 27.86 23.16C28.6067 23.5867 29.1933 24.16 29.62 24.88C30.06 25.5867 30.28 26.3867 30.28 27.28ZM25.16 30.32C25.7067 30.32 26.2067 30.1867 26.66 29.92C27.1267 29.64 27.4933 29.2667 27.76 28.8C28.04 28.3333 28.18 27.8267 28.18 27.28C28.18 26.7333 28.04 26.2333 27.76 25.78C27.4933 25.3267 27.1333 24.9667 26.68 24.7C26.2267 24.42 25.72 24.28 25.16 24.28C24.6267 24.28 24.1267 24.42 23.66 24.7C23.1933 24.9667 22.82 25.3267 22.54 25.78C22.2733 26.2333 22.14 26.7333 22.14 27.28C22.14 27.8267 22.28 28.3333 22.56 28.8C22.84 29.2533 23.2067 29.62 23.66 29.9C24.1267 30.18 24.6267 30.32 25.16 30.32Z" fill="black"/>
<path d="M57.6 32.5V18.3H63.56C64.2 18.3 64.7867 18.4333 65.32 18.7C65.8533 18.9667 66.32 19.32 66.72 19.76C67.12 20.2 67.4267 20.6933 67.64 21.24C67.8533 21.7867 67.96 22.3467 67.96 22.92C67.96 23.7067 67.78 24.46 67.42 25.18C67.0733 25.8867 66.5733 26.46 65.92 26.9C65.28 27.34 64.5333 27.56 63.68 27.56H59.84V32.5H57.6ZM59.84 25.58H63.54C63.9667 25.58 64.34 25.4667 64.66 25.24C64.98 25 65.2267 24.68 65.4 24.28C65.5867 23.88 65.68 23.4267 65.68 22.92C65.68 22.4 65.5733 21.94 65.36 21.54C65.1467 21.14 64.8667 20.8333 64.52 20.62C64.1867 20.3933 63.82 20.28 63.42 20.28H59.84V25.58ZM70.0609 32.5V18.3H76.2409C76.8809 18.3 77.4676 18.4333 78.0009 18.7C78.5343 18.9667 78.9943 19.32 79.3809 19.76C79.7809 20.2 80.0876 20.6933 80.3009 21.24C80.5276 21.7867 80.6409 22.3467 80.6409 22.92C80.6409 23.5467 80.5276 24.1467 80.3009 24.72C80.0743 25.2933 79.7476 25.7867 79.3209 26.2C78.9076 26.6133 78.4209 26.9133 77.8609 27.1L81.2009 32.5H78.6809L75.6009 27.56H72.3009V32.5H70.0609ZM72.3009 25.58H76.2209C76.6343 25.58 77.0009 25.46 77.3209 25.22C77.6409 24.98 77.8943 24.66 78.0809 24.26C78.2676 23.8467 78.3609 23.4 78.3609 22.92C78.3609 22.4267 78.2543 21.9867 78.0409 21.6C77.8276 21.2 77.5476 20.88 77.2009 20.64C76.8676 20.4 76.5009 20.28 76.1009 20.28H72.3009V25.58ZM89.1445 32.6C88.1179 32.6 87.1912 32.4 86.3645 32C85.5379 31.6 84.8245 31.06 84.2245 30.38C83.6245 29.6867 83.1579 28.9133 82.8245 28.06C82.5045 27.1933 82.3445 26.3067 82.3445 25.4C82.3445 24.4533 82.5179 23.5533 82.8645 22.7C83.2112 21.8333 83.6912 21.0667 84.3045 20.4C84.9179 19.72 85.6379 19.1867 86.4645 18.8C87.3045 18.4 88.2112 18.2 89.1845 18.2C90.1979 18.2 91.1179 18.4067 91.9445 18.82C92.7845 19.2333 93.4979 19.7867 94.0845 20.48C94.6845 21.1733 95.1445 21.9467 95.4645 22.8C95.7979 23.6533 95.9645 24.5267 95.9645 25.42C95.9645 26.3667 95.7912 27.2733 95.4445 28.14C95.1112 28.9933 94.6379 29.76 94.0245 30.44C93.4112 31.1067 92.6845 31.6333 91.8445 32.02C91.0179 32.4067 90.1179 32.6 89.1445 32.6ZM84.6245 25.4C84.6245 26.0667 84.7312 26.7133 84.9445 27.34C85.1579 27.9667 85.4579 28.5267 85.8445 29.02C86.2445 29.5 86.7245 29.88 87.2845 30.16C87.8445 30.44 88.4712 30.58 89.1645 30.58C89.8845 30.58 90.5245 30.4333 91.0845 30.14C91.6445 29.8467 92.1112 29.4533 92.4845 28.96C92.8712 28.4533 93.1645 27.8933 93.3645 27.28C93.5645 26.6533 93.6645 26.0267 93.6645 25.4C93.6645 24.7333 93.5579 24.0933 93.3445 23.48C93.1445 22.8533 92.8445 22.3 92.4445 21.82C92.0445 21.3267 91.5645 20.94 91.0045 20.66C90.4579 20.38 89.8445 20.24 89.1645 20.24C88.4445 20.24 87.8045 20.3867 87.2445 20.68C86.6845 20.9733 86.2112 21.3667 85.8245 21.86C85.4379 22.3533 85.1379 22.9067 84.9245 23.52C84.7245 24.1333 84.6245 24.76 84.6245 25.4ZM108.313 20.28H103.593V32.5H101.333V20.28H96.593V18.3H108.313V20.28ZM119.957 30.52V32.5H110.217V18.3H119.777V20.28H112.457V24.32H118.797V26.18H112.457V30.52H119.957ZM121.114 25.3C121.114 24.4333 121.267 23.5867 121.574 22.76C121.881 21.92 122.327 21.16 122.914 20.48C123.514 19.7867 124.241 19.24 125.094 18.84C125.947 18.4267 126.914 18.22 127.994 18.22C129.274 18.22 130.381 18.5133 131.314 19.1C132.247 19.6733 132.941 20.4133 133.394 21.32L131.634 22.5C131.367 21.9267 131.027 21.4733 130.614 21.14C130.214 20.8067 129.774 20.5733 129.294 20.44C128.827 20.3067 128.367 20.24 127.914 20.24C127.167 20.24 126.514 20.3933 125.954 20.7C125.394 20.9933 124.921 21.3867 124.534 21.88C124.161 22.3733 123.874 22.9267 123.674 23.54C123.487 24.1533 123.394 24.7667 123.394 25.38C123.394 26.06 123.507 26.72 123.734 27.36C123.961 27.9867 124.274 28.5467 124.674 29.04C125.087 29.52 125.574 29.9 126.134 30.18C126.694 30.46 127.307 30.6 127.974 30.6C128.427 30.6 128.901 30.52 129.394 30.36C129.887 30.2 130.341 29.9533 130.754 29.62C131.181 29.2733 131.514 28.82 131.754 28.26L133.614 29.32C133.321 30.0267 132.861 30.6267 132.234 31.12C131.621 31.6133 130.927 31.9867 130.154 32.24C129.394 32.4933 128.641 32.62 127.894 32.62C126.894 32.62 125.981 32.4133 125.154 32C124.327 31.5733 123.614 31.0133 123.014 30.32C122.414 29.6133 121.947 28.8267 121.614 27.96C121.281 27.08 121.114 26.1933 121.114 25.3ZM146.106 20.28H141.386V32.5H139.126V20.28H134.386V18.3H146.106V20.28Z" fill="black"/>
</svg>
