<svg width="240" height="50" viewBox="0 0 240 50" fill="none" xmlns="http://www.w3.org/2000/svg">
<rect x="0.5" y="0.5" width="239" height="49" rx="24.5" stroke="#FFD280"/>
<circle cx="25" cy="25" r="25" fill="#FFD280"/>
<path d="M25.58 34.54V31.36H19.44V29.4L26.28 20.58H27.78V29.36H29.54V31.36H27.78V34.54H25.58ZM21.68 29.36H25.82V23.94L21.68 29.36Z" fill="black"/>
<path d="M68.02 20.28H63.3V32.5H61.04V20.28H56.3V18.3H68.02V20.28ZM69.9242 32.5V18.3H76.1042C76.7442 18.3 77.3309 18.4333 77.8642 18.7C78.3976 18.9667 78.8576 19.32 79.2442 19.76C79.6442 20.2 79.9509 20.6933 80.1642 21.24C80.3909 21.7867 80.5042 22.3467 80.5042 22.92C80.5042 23.5467 80.3909 24.1467 80.1642 24.72C79.9376 25.2933 79.6109 25.7867 79.1842 26.2C78.7709 26.6133 78.2842 26.9133 77.7242 27.1L81.0642 32.5H78.5442L75.4642 27.56H72.1642V32.5H69.9242ZM72.1642 25.58H76.0842C76.4976 25.58 76.8642 25.46 77.1842 25.22C77.5042 24.98 77.7576 24.66 77.9442 24.26C78.1309 23.8467 78.2242 23.4 78.2242 22.92C78.2242 22.4267 78.1176 21.9867 77.9042 21.6C77.6909 21.2 77.4109 20.88 77.0642 20.64C76.7309 20.4 76.3642 20.28 75.9642 20.28H72.1642V25.58ZM92.8869 30.52V32.5H83.1469V18.3H92.7069V20.28H85.3869V24.32H91.7269V26.18H85.3869V30.52H92.8869ZM99.2977 18.3H101.418L106.938 32.5H104.578L103.078 28.64H97.5977L96.1177 32.5H93.7377L99.2977 18.3ZM102.638 26.98L100.358 20.76L97.9977 26.98H102.638ZM117.786 20.28H113.066V32.5H110.806V20.28H106.066V18.3H117.786V20.28Z" fill="black"/>
</svg>
