<svg width="240" height="50" viewBox="0 0 240 50" fill="none" xmlns="http://www.w3.org/2000/svg">
<rect x="0.5" y="0.5" width="239" height="49" rx="24.5" stroke="#FFD280"/>
<circle cx="25" cy="25" r="25" fill="#FFD280"/>
<path d="M20.8 32C20.8 31.44 20.8467 30.9267 20.94 30.46C21.0333 29.98 21.1933 29.5267 21.42 29.1C21.66 28.6733 21.9867 28.2733 22.4 27.9C22.8267 27.5133 23.3667 27.1467 24.02 26.8C24.4867 26.5333 24.9267 26.3 25.34 26.1C25.7533 25.8867 26.12 25.68 26.44 25.48C26.76 25.2667 27.0067 25.04 27.18 24.8C27.3667 24.56 27.46 24.2867 27.46 23.98C27.46 23.6867 27.38 23.4133 27.22 23.16C27.06 22.9067 26.82 22.7067 26.5 22.56C26.18 22.4 25.7933 22.32 25.34 22.32C24.98 22.32 24.6467 22.3667 24.34 22.46C24.0467 22.5533 23.7733 22.68 23.52 22.84C23.28 22.9867 23.06 23.1533 22.86 23.34C22.66 23.5133 22.4867 23.6867 22.34 23.86L20.96 22.28C21.0933 22.12 21.3 21.94 21.58 21.74C21.8733 21.5267 22.22 21.32 22.62 21.12C23.0333 20.9067 23.5 20.7333 24.02 20.6C24.54 20.4533 25.1067 20.38 25.72 20.38C26.5867 20.38 27.3267 20.5267 27.94 20.82C28.5533 21.1 29.02 21.4933 29.34 22C29.6733 22.4933 29.84 23.0533 29.84 23.68C29.84 24.1733 29.74 24.6067 29.54 24.98C29.3533 25.3533 29.1067 25.6867 28.8 25.98C28.4933 26.26 28.1667 26.5067 27.82 26.72C27.4867 26.92 27.1733 27.1 26.88 27.26C26.36 27.5133 25.9067 27.7467 25.52 27.96C25.1467 28.1733 24.8267 28.3867 24.56 28.6C24.2933 28.8 24.0733 29.0133 23.9 29.24C23.7267 29.4533 23.58 29.7133 23.46 30.02H30.06V32H20.8Z" fill="black"/>
<path d="M62.64 18.36H64.74L66.5 23.18L68.28 18.36H70.38L67.94 24.68L70.06 29.9L74.48 18.3H76.94L71.12 32.5H69.18L66.52 26.14L63.84 32.5H61.88L56.08 18.3H58.52L62.96 29.9L65.08 24.68L62.64 18.36ZM81.5438 18.3H83.6638L89.1838 32.5H86.8238L85.3238 28.64H79.8438L78.3638 32.5H75.9838L81.5438 18.3ZM84.8838 26.98L82.6038 20.76L80.2438 26.98H84.8838ZM100.032 20.28H95.3117V32.5H93.0517V20.28H88.3117V18.3H100.032V20.28ZM111.676 30.52V32.5H101.936V18.3H111.496V20.28H104.176V24.32H110.516V26.18H104.176V30.52H111.676ZM113.987 32.5V18.3H120.167C120.807 18.3 121.393 18.4333 121.927 18.7C122.46 18.9667 122.92 19.32 123.307 19.76C123.707 20.2 124.013 20.6933 124.227 21.24C124.453 21.7867 124.567 22.3467 124.567 22.92C124.567 23.5467 124.453 24.1467 124.227 24.72C124 25.2933 123.673 25.7867 123.247 26.2C122.833 26.6133 122.347 26.9133 121.787 27.1L125.127 32.5H122.607L119.527 27.56H116.227V32.5H113.987ZM116.227 25.58H120.147C120.56 25.58 120.927 25.46 121.247 25.22C121.567 24.98 121.82 24.66 122.007 24.26C122.193 23.8467 122.287 23.4 122.287 22.92C122.287 22.4267 122.18 21.9867 121.967 21.6C121.753 21.2 121.473 20.88 121.127 20.64C120.793 20.4 120.427 20.28 120.027 20.28H116.227V25.58ZM131.251 25.3C131.251 24.4333 131.404 23.5867 131.711 22.76C132.017 21.92 132.464 21.16 133.051 20.48C133.651 19.7867 134.377 19.24 135.231 18.84C136.084 18.4267 137.051 18.22 138.131 18.22C139.411 18.22 140.517 18.5133 141.451 19.1C142.384 19.6733 143.077 20.4133 143.531 21.32L141.771 22.5C141.504 21.9267 141.164 21.4733 140.751 21.14C140.351 20.8067 139.911 20.5733 139.431 20.44C138.964 20.3067 138.504 20.24 138.051 20.24C137.304 20.24 136.651 20.3933 136.091 20.7C135.531 20.9933 135.057 21.3867 134.671 21.88C134.297 22.3733 134.011 22.9267 133.811 23.54C133.624 24.1533 133.531 24.7667 133.531 25.38C133.531 26.06 133.644 26.72 133.871 27.36C134.097 27.9867 134.411 28.5467 134.811 29.04C135.224 29.52 135.711 29.9 136.271 30.18C136.831 30.46 137.444 30.6 138.111 30.6C138.564 30.6 139.037 30.52 139.531 30.36C140.024 30.2 140.477 29.9533 140.891 29.62C141.317 29.2733 141.651 28.82 141.891 28.26L143.751 29.32C143.457 30.0267 142.997 30.6267 142.371 31.12C141.757 31.6133 141.064 31.9867 140.291 32.24C139.531 32.4933 138.777 32.62 138.031 32.62C137.031 32.62 136.117 32.4133 135.291 32C134.464 31.5733 133.751 31.0133 133.151 30.32C132.551 29.6133 132.084 28.8267 131.751 27.96C131.417 27.08 131.251 26.1933 131.251 25.3ZM145.823 32.5V18.3H148.063V30.52H155.683V32.5H145.823ZM167.242 30.52V32.5H157.502V18.3H167.062V20.28H159.742V24.32H166.082V26.18H159.742V30.52H167.242ZM173.653 18.3H175.773L181.293 32.5H178.933L177.433 28.64H171.953L170.473 32.5H168.093L173.653 18.3ZM176.993 26.98L174.713 20.76L172.353 26.98H176.993ZM185.289 22.46V32.5H183.049V18.3H184.889L192.929 28.56V18.32H195.189V32.5H193.229L185.289 22.46ZM206.781 21.64C206.648 21.4933 206.455 21.34 206.201 21.18C205.948 21.0067 205.648 20.8467 205.301 20.7C204.955 20.5533 204.581 20.4333 204.181 20.34C203.781 20.2467 203.368 20.2 202.941 20.2C202.008 20.2 201.315 20.3733 200.861 20.72C200.408 21.0667 200.181 21.5467 200.181 22.16C200.181 22.6133 200.308 22.9733 200.561 23.24C200.815 23.4933 201.201 23.7067 201.721 23.88C202.241 24.0533 202.895 24.24 203.681 24.44C204.641 24.6667 205.475 24.94 206.181 25.26C206.888 25.5667 207.428 25.98 207.801 26.5C208.175 27.02 208.361 27.7067 208.361 28.56C208.361 29.28 208.228 29.9 207.961 30.42C207.695 30.94 207.321 31.3667 206.841 31.7C206.361 32.02 205.808 32.26 205.181 32.42C204.555 32.5667 203.881 32.64 203.161 32.64C202.455 32.64 201.748 32.5667 201.041 32.42C200.348 32.2733 199.681 32.06 199.041 31.78C198.415 31.4867 197.835 31.1333 197.301 30.72L198.321 28.8C198.495 28.9733 198.741 29.1667 199.061 29.38C199.395 29.58 199.775 29.7733 200.201 29.96C200.641 30.1467 201.115 30.3067 201.621 30.44C202.141 30.56 202.668 30.62 203.201 30.62C204.095 30.62 204.775 30.4667 205.241 30.16C205.721 29.84 205.961 29.3867 205.961 28.8C205.961 28.32 205.808 27.94 205.501 27.66C205.195 27.3667 204.748 27.12 204.161 26.92C203.575 26.72 202.875 26.52 202.061 26.32C201.128 26.0667 200.348 25.7933 199.721 25.5C199.095 25.1933 198.621 24.8067 198.301 24.34C197.995 23.86 197.841 23.2533 197.841 22.52C197.841 21.5867 198.068 20.8 198.521 20.16C198.975 19.5067 199.588 19.02 200.361 18.7C201.148 18.3667 202.028 18.2 203.001 18.2C203.641 18.2 204.248 18.2733 204.821 18.42C205.395 18.5533 205.928 18.74 206.421 18.98C206.928 19.22 207.388 19.4933 207.801 19.8L206.781 21.64ZM220.348 30.52V32.5H210.608V18.3H220.168V20.28H212.848V24.32H219.188V26.18H212.848V30.52H220.348Z" fill="black"/>
</svg>
